<?xml version="1.0" encoding="UTF-8" standalone="no"?>
<!DOCTYPE svg PUBLIC "-//W3C//DTD SVG 1.1//EN" "http://www.w3.org/Graphics/SVG/1.1/DTD/svg11.dtd">
<svg width="100%" height="100%" viewBox="0 0 301 76" version="1.1" xmlns="http://www.w3.org/2000/svg" xmlns:xlink="http://www.w3.org/1999/xlink" xml:space="preserve" xmlns:serif="http://www.serif.com/" style="fill-rule:evenodd;clip-rule:evenodd;stroke-linejoin:round;stroke-miterlimit:2;">
    <g id="アートボード1" transform="matrix(1,0,0,0.974359,0,0)">
        <rect x="0" y="0" width="301" height="78" style="fill:none;"/>
        <g id="ã--ã--ã--ã---3" serif:id="ã…¬ã‡¤ã…¤ã…¼ 3" transform="matrix(0.692956,0,0,0.711192,-58.970126,-78.424664)">
            <g transform="matrix(364.996796,160.302643,160.302643,-364.996796,57.551298,68.818777)">
                <path d="M0.546,0.12C0.536,0.112 0.53,0.106 0.534,0.095C0.539,0.084 0.547,0.086 0.555,0.066L0.609,-0.057C0.612,-0.062 0.616,-0.064 0.619,-0.062C0.625,-0.06 0.628,-0.053 0.631,-0.051C0.635,-0.05 0.658,-0.054 0.679,-0.045C0.718,-0.028 0.732,0.011 0.714,0.053C0.697,0.092 0.663,0.108 0.632,0.094C0.612,0.085 0.608,0.069 0.605,0.067C0.604,0.067 0.603,0.067 0.602,0.069L0.578,0.124C0.575,0.13 0.569,0.133 0.563,0.13C0.561,0.129 0.555,0.126 0.546,0.12ZM0.641,-0.019L0.622,0.023C0.613,0.044 0.619,0.06 0.632,0.065C0.646,0.071 0.659,0.062 0.672,0.033C0.685,0.003 0.682,-0.014 0.665,-0.022C0.653,-0.027 0.644,-0.027 0.641,-0.019ZM0.464,0.06C0.47,0.047 0.484,0.043 0.501,0.05C0.518,0.058 0.525,0.071 0.519,0.084C0.513,0.098 0.499,0.102 0.482,0.094C0.465,0.087 0.458,0.073 0.464,0.06ZM0.406,0.058C0.396,0.05 0.389,0.044 0.393,0.034C0.398,0.022 0.406,0.025 0.415,0.004L0.455,-0.088C0.464,-0.108 0.462,-0.114 0.464,-0.12C0.468,-0.128 0.476,-0.132 0.495,-0.124C0.513,-0.116 0.516,-0.107 0.512,-0.098C0.51,-0.093 0.504,-0.091 0.495,-0.07L0.437,0.062C0.435,0.068 0.428,0.071 0.422,0.068C0.42,0.067 0.414,0.064 0.406,0.058ZM0.339,0.029C0.329,0.021 0.323,0.015 0.327,0.005C0.332,-0.007 0.339,-0.004 0.348,-0.025L0.351,-0.029C0.351,-0.031 0.351,-0.032 0.349,-0.033C0.347,-0.034 0.338,-0.035 0.328,-0.039C0.289,-0.057 0.275,-0.096 0.294,-0.139C0.31,-0.176 0.344,-0.192 0.375,-0.178C0.399,-0.168 0.401,-0.146 0.405,-0.144C0.406,-0.144 0.406,-0.144 0.409,-0.147C0.413,-0.152 0.419,-0.159 0.425,-0.156C0.428,-0.155 0.431,-0.153 0.438,-0.147C0.449,-0.139 0.456,-0.131 0.452,-0.123C0.448,-0.114 0.434,-0.11 0.426,-0.092L0.371,0.033C0.368,0.039 0.362,0.042 0.356,0.039C0.354,0.038 0.348,0.035 0.339,0.029ZM0.335,-0.117C0.322,-0.087 0.325,-0.07 0.342,-0.062C0.354,-0.057 0.363,-0.057 0.366,-0.065L0.385,-0.107C0.394,-0.128 0.388,-0.144 0.375,-0.149C0.361,-0.156 0.348,-0.146 0.335,-0.117ZM0.859,0.191C0.855,0.189 0.842,0.186 0.821,0.177C0.784,0.161 0.768,0.133 0.781,0.104C0.786,0.091 0.796,0.083 0.808,0.08C0.811,0.079 0.813,0.078 0.813,0.077C0.814,0.076 0.813,0.074 0.811,0.072C0.8,0.06 0.798,0.048 0.804,0.035C0.809,0.025 0.817,0.018 0.827,0.016C0.828,0.016 0.829,0.015 0.83,0.014C0.83,0.013 0.83,0.012 0.829,0.011C0.826,0.005 0.826,-0.003 0.828,-0.008C0.837,-0.028 0.862,-0.03 0.898,-0.015C0.944,0.006 0.965,0.038 0.953,0.065C0.941,0.092 0.924,0.095 0.897,0.083C0.883,0.077 0.86,0.064 0.846,0.058C0.837,0.053 0.831,0.054 0.829,0.06C0.826,0.065 0.83,0.069 0.847,0.076C0.897,0.098 0.917,0.127 0.903,0.157C0.897,0.172 0.886,0.175 0.885,0.178C0.884,0.181 0.895,0.196 0.892,0.204C0.89,0.209 0.885,0.211 0.881,0.209C0.873,0.206 0.868,0.195 0.859,0.191ZM0.824,0.121C0.818,0.136 0.82,0.148 0.832,0.153C0.845,0.159 0.854,0.154 0.86,0.14C0.867,0.125 0.865,0.113 0.852,0.107C0.84,0.102 0.83,0.107 0.824,0.121ZM0.857,0.014C0.854,0.02 0.864,0.028 0.901,0.044C0.911,0.048 0.916,0.046 0.919,0.039C0.923,0.03 0.916,0.018 0.892,0.007C0.874,-0 0.862,0.002 0.857,0.014ZM0.922,0.142C0.94,0.102 0.978,0.087 1.018,0.104C1.058,0.122 1.073,0.16 1.055,0.2C1.037,0.24 0.999,0.255 0.959,0.238C0.919,0.22 0.905,0.182 0.922,0.142ZM0.965,0.16C0.953,0.188 0.953,0.206 0.97,0.214C0.987,0.221 1,0.21 1.012,0.183C1.024,0.155 1.024,0.136 1.007,0.128C0.99,0.121 0.977,0.133 0.965,0.16ZM0.502,0.034C0.492,0.026 0.485,0.02 0.489,0.01C0.494,-0.002 0.502,0.001 0.511,-0.02L0.527,-0.056C0.536,-0.077 0.531,-0.083 0.533,-0.089C0.537,-0.098 0.545,-0.102 0.566,-0.092C0.585,-0.084 0.588,-0.075 0.584,-0.067C0.582,-0.061 0.576,-0.059 0.567,-0.039L0.533,0.038C0.531,0.044 0.524,0.047 0.518,0.044C0.516,0.043 0.51,0.04 0.502,0.034ZM0.154,-0.131C0.151,-0.139 0.15,-0.147 0.153,-0.154C0.156,-0.16 0.165,-0.166 0.177,-0.161C0.194,-0.154 0.188,-0.13 0.203,-0.123C0.213,-0.119 0.22,-0.124 0.228,-0.141C0.231,-0.148 0.23,-0.151 0.224,-0.154L0.22,-0.156C0.177,-0.175 0.164,-0.195 0.176,-0.222C0.185,-0.243 0.209,-0.251 0.232,-0.241C0.245,-0.235 0.254,-0.227 0.258,-0.216C0.259,-0.214 0.26,-0.213 0.262,-0.212C0.263,-0.212 0.264,-0.212 0.267,-0.213C0.275,-0.217 0.285,-0.218 0.294,-0.214C0.31,-0.207 0.316,-0.194 0.311,-0.182C0.309,-0.178 0.304,-0.176 0.3,-0.178C0.295,-0.18 0.292,-0.178 0.289,-0.172L0.266,-0.12C0.253,-0.09 0.226,-0.084 0.192,-0.099C0.173,-0.107 0.16,-0.119 0.154,-0.131ZM0.217,-0.2C0.212,-0.189 0.217,-0.182 0.232,-0.176L0.237,-0.174C0.24,-0.172 0.242,-0.173 0.243,-0.176L0.244,-0.179C0.25,-0.192 0.247,-0.206 0.237,-0.21C0.229,-0.213 0.221,-0.209 0.217,-0.2ZM0.725,0.077C0.719,0.074 0.718,0.068 0.722,0.059C0.726,0.049 0.731,0.046 0.737,0.048L0.777,0.066C0.783,0.069 0.784,0.074 0.779,0.084C0.775,0.093 0.77,0.097 0.765,0.094L0.725,0.077Z" style="fill:url(#_Linear1);fill-rule:nonzero;"/>
            </g>
            <g transform="matrix(1,0,0,1,491.0572,154.2064)">
                <path d="M0,3.302C1.254,-6.176 4.242,-23.615 5.375,-27.519C7.207,-33.851 11.55,-36.603 18.308,-34.647C25.062,-32.69 27.264,-28.046 25.432,-21.713C24.303,-17.809 17.508,-1.467 13.511,7.215C11.139,12.243 8.761,13.733 4.644,12.539C0.532,11.346 -0.685,8.82 0,3.302M2.812,18.872C8.719,20.588 11.754,25.126 9.922,31.458C8.118,37.689 3.132,39.905 -2.78,38.193C-8.692,36.482 -11.832,31.912 -10.028,25.681C-8.192,19.348 -3.206,17.133 2.812,18.872" style="fill:rgb(214,32,61);fill-rule:nonzero;"/>
            </g>
        </g>
    </g>
    <defs>
        <linearGradient id="_Linear1" x1="0" y1="0" x2="1" y2="0" gradientUnits="userSpaceOnUse" gradientTransform="matrix(1,0,0,-1,0,0.004213)"><stop offset="0" style="stop-color:rgb(43,98,130);stop-opacity:1"/><stop offset="0.38" style="stop-color:rgb(61,130,156);stop-opacity:1"/><stop offset="1" style="stop-color:rgb(42,160,147);stop-opacity:1"/></linearGradient>
    </defs>
</svg>
